<?xml version="1.0" encoding="UTF-8"?>
<svg id="Layer_1" xmlns="http://www.w3.org/2000/svg" version="1.1" viewBox="0 0 800 800">
  <!-- Generator: Adobe Illustrator 29.8.0, SVG Export Plug-In . SVG Version: 2.1.1 Build 160)  -->
  <defs>
    <style>
      .st0 {
        fill: #262626;
      }
    </style>
  </defs>
  <path class="st0" d="M562.4,277.1c-7-18.2-21.4-32.5-39.6-39.5-12.4-4.6-25.5-7-38.7-7.2-22-1-28.5-1.3-84.2-1.3s-62.2.3-84.2,1.3c-13.2.2-26.3,2.6-38.7,7.2-18.2,7-32.5,21.4-39.5,39.6-4.6,12.4-7,25.5-7.2,38.7-1,22-1.3,28.5-1.3,84.2s.3,62.2,1.3,84.2c.2,13.2,2.6,26.3,7.2,38.7,7,18.2,21.4,32.5,39.6,39.5,12.4,4.6,25.5,7,38.7,7.2,22,1,28.5,1.2,84.2,1.2s62.2-.2,84.2-1.2c13.2-.1,26.3-2.5,38.7-7.1,18.2-7,32.5-21.4,39.5-39.6,4.6-12.4,7-25.5,7.2-38.7,1-22,1.2-28.5,1.2-84.2s-.2-62.2-1.2-84.2c-.1-13.2-2.5-26.3-7.1-38.7h0ZM400,507c-59.1,0-107-47.9-107-107s47.9-107,107-107,107,47.9,107,107h0c0,59.1-47.9,107-107,107ZM511.2,313.8c-13.8,0-25-11.2-25-25s11.2-25,25-25c13.8,0,25,11.2,25,25s-11.2,25-25,25h0ZM469.5,400c0,38.4-31.1,69.5-69.5,69.5s-69.5-31.1-69.5-69.5,31.1-69.5,69.5-69.5,69.5,31.1,69.5,69.5h0ZM400,0C179.1,0,0,179.1,0,400s179.1,400,400,400,400-179.1,400-400S620.9,0,400,0h0ZM607.1,485.9c-.4,17.3-3.6,34.4-9.7,50.6-10.8,28-32.9,50.1-60.9,60.9-16.2,6.1-33.3,9.4-50.5,9.7-22.3,1-29.3,1.2-85.9,1.2s-63.7-.2-85.9-1.2c-17.3-.4-34.4-3.6-50.5-9.7-28-10.8-50.1-32.9-60.9-60.9-6.1-16.2-9.4-33.3-9.7-50.5-1-22.3-1.3-29.3-1.3-85.9s.3-63.7,1.3-85.9c.3-17.3,3.6-34.4,9.7-50.5,10.8-28,33-50.1,61-61,16.2-6.1,33.3-9.3,50.5-9.7,22.3-1,29.3-1.3,85.9-1.3s63.7.3,85.9,1.3c17.3.3,34.4,3.6,50.5,9.7,28,10.8,50.1,33,60.9,61,6.1,16.2,9.4,33.3,9.7,50.5,1,22.3,1.2,29.3,1.2,85.9s-.2,63.7-1.2,85.9h0Z"/>
  <metadata>
    <sfw xmlns="http://ns.adobe.com/SaveForWeb/1.0/">
      <slices/>
      <sliceSourceBounds x="0" y="0" width="800" height="800" bottomLeftOrigin="true"/>
    </sfw>
  </metadata>
</svg>