<?xml version="1.0" encoding="UTF-8"?>
<svg id="Layer_1" xmlns="http://www.w3.org/2000/svg" version="1.1" viewBox="0 0 100 100">
  <!-- Generator: Adobe Illustrator 29.7.1, SVG Export Plug-In . SVG Version: 2.1.1 Build 8)  -->
  <defs>
    <style>
      .st0 {
        fill: #262626;
      }

      .st1 {
        fill: #f8f2ea;
      }
    </style>
  </defs>
  <circle class="st0" cx="50" cy="50" r="45"/>
  <path class="st1" d="M79.8,49l-30.6-23.8c-.4-.3-.9-.3-1.3-.1-.4.2-.7.6-.7,1.1v6.2c0,.6-.5,1.2-1.2,1.2h-19.3c-.7,0-1.2.6-1.2,1.2v30.3c0,.7.6,1.2,1.2,1.2h19.3c.6,0,1.2.5,1.2,1.2v6.2c0,.5.3.9.7,1.1.2,0,.4.1.6.1.3,0,.5,0,.8-.3l30.6-23.8c.3-.2.5-.6.5-1s-.2-.7-.5-1Z"/>
  <metadata>
    <sfw xmlns="http://ns.adobe.com/SaveForWeb/1.0/">
      <slices/>
      <sliceSourceBounds x="5" y="5" width="90" height="90" bottomLeftOrigin="true"/>
    </sfw>
  </metadata>
</svg>