<?xml version="1.0" encoding="UTF-8"?>
<svg id="okno-mark" xmlns="http://www.w3.org/2000/svg" version="1.1" viewBox="0 0 2656.3 2731.3">
  <style>
    .b { fill: #262626; }
  </style>
  <g>
  <path 
d="M2325.3,157c23.8,18.5,47.6,37.4,69.5,57.5,12.1,11.1,42.7,37,45.7,52.2,1.2,5.9-.6,11.3,1.4,17.4,1.7,5.1,20.4,26,25,33.3,7.6,12.1,15.3,27.8,20.9,39.7,9.5,20,11.5,34.8,25.4,51.4,15.4,18.4,4.4,53,5.5,73.9,1.3,24,2.5,42.9-.9,67.8-2.1,15.6-10.4,32.3-10.1,47.3.2,14.1,4.4,9.2-1.4,25.9-2.2,6.4,1,8.7-9,13.5l5.6,4.7-5.6,1.1c2.6,5.2-2.5,11-5.6,15-19.8,25.3-36.3,63-53,93.7-4.3,8-13.7,18.1-18.2,27-2.2,4.3-14.7,34.9-14.6,37.3,3.5,12.3,15.6,19.9,22.6,29.3,76.5,101.7,121.3,232,114.1,360.2-2.5,44.8-31.8,128.3-56.6,167.4-22.5,35.5-53.1,50.7-84.7,75.3l-18.8.9,13.2,1.9c2.1,4.5-5.7,8.1-5.7,8.6-.8,6.6,5.7,7.6,8.9,10.9s10.3,15.7,11.9,17.2c2.6,2.4,7.2,1.8,8.9,3.3s1.3,4.5,2.6,5.9c45,47.7,87.8,79.4,127.4,136,66.2,94.6,114.2,252.9,105.7,368.5-1.3,17.2-9.1,38.5-9.4,54.7-.3,14.6.7,10.7-2.8,25.3-5.2,22-1.2,43.7-5.3,66.2-8.8,48.8-23.9,117.3-41.3,162-7.3,18.7-12.1,18.2-22.2,30.5-36.1,44.5-69.9,94.6-107.2,137.5-44.1,50.7-99.8,89.4-153.8,129.4-2.6,1.9-8.4,10.8-12.3,13.2-76.9,47-172.2,94.2-262.2,108.3-20.3,3.2-39.8,0-60.1.6-66.5,2.2-129.2,6.8-195.3-8.4-33.1-7.6-68.9-31.2-97.9-48.8-70.7-43.1-141.8-90.8-204.6-143.5-12.4-10.4-25.2-26.3-40.4-33-4.9-2.2-.9,4.2-1.9,5.7s-3.4,1.3-4,2.4c-9.5,16.1-15.6,33.2-26.2,48.1-7.1,9.9-24.3,24.9-28.8,33.4-2,3.8.2,7.9-.1,8.1-.6.4-7.7,1.1-13,4.9-20.5,14.3-44.7,43.9-68.5,52.1-15,5.2-8.1,3.3-20.2,11.6-98.6,67.7-206.8,67.8-320.2,42-50.4-11.5-79.8-46.8-119-76.7-3.7,1-6.1,3.9-9.8,5.3-85.3,30.9-156.7,87.5-253.4,75.4-100.4-12.5-160.7-45.5-244.1-98.4-59.5-37.7-123.4-79-165.2-139.7-3.2-4.6-15.9-22.3-17.7-25.6-2.8-5.3-1.8-12.6-3.4-16.9s-3.8-2.2-5.1-4.6c-3.8-7.2-11.9-18.1-9.8-25h-7.5s1.9-5.6,1.9-5.6l-6.7-1.8c-1.6-2.8,2.3-9.7,2.2-10.5-.2-2-3.8-5-4.7-9.6-1.4-7-2.2-16.6-.2-23.3l-5.7-1c.9-6.4,1.4-13.1,1-19.6-.4-6.3-1.2-7.8-1-16.2.3-11.1.7-24.3-3.8-32.3s-3.1-42-3.9-50.3c-3.8-38.4-4.7-71.1-5.6-109.4-.8-32.4-4.9-65.3-3.8-97.9s4.3-28.7,3.7-41.4-9.5-13.9.2-16.8l-4-2.1c3.7-6.5.1-11.5.1-16.9-.2-40.5-1.3-81.2.7-121.9.3-5.6,4-17.4,4.1-22.8.2-9.9-6.4-18.4-2.7-29.7s-3.2-38.5,2.2-56.9,3.3-.8,3.3-2c.2-6-6.6-22.2,5.6-22.5-7.6-10.4-.7-21.1-1-29.3s-5-15.7-4.6-21.5c.6-9,7-22.4,8.1-32.7s-3.1-16.6,3.1-15.4l-3.9-3c2.5-5.6-.2-11.8.7-17.1s7.1-16.5,8.1-22.5,3.1-24.1,4.3-33.7-.8-21.4.4-27.6,8.1-9,8.6-13.9-2.5-7.7-2.6-11.4c-.5-10.8,13.7-33.6,25.7-34.5l-13.2-10.3,9.7-13.9,3.5,1.7c7.7-20.3,17.7-36.8,30.9-54.7,18.1-24.6,35-57.4,66.9-64.8-2.5-3.3-7-2.9-10.1-5-39.8-26.3-106.3-122.1-132.6-164.7-35.2-56.8-65.3-115-80.1-180C16,880.8,2,808.7.2,755.6c-1.9-55.9,10.7-109.3,21.3-163.3,3.6-18.2,6.7-14.3,14.3-25.2s9.1-28.7,9.1-30.3c0-4.1-3.8-6.8-3.2-12.6s9.7-28.4,11.3-32.2c5.5-13.4,8.6-17.3,13-32,4.1-13.5,15.7-32.9,22-47.9s9.1-7.4,11-11.5c50.2-105.9,114.6-178.3,209.2-248,99.8-73.6,188.7-98.4,310.2-111.3,133.1-14.2,233.4,14,358,57.8,100.1,35.2,160.4,89.4,230.6,165.5,3.2,3.5,10.6,7,13.5,11.9,3.2-7,6.6-9.7,14.1-5.6l-5.3-11.7,30.3-62.1,6-7.2c37.5-83.2,101.3-157.7,194.4-176.3,19.8-4,54.7-8.5,74.7-8.1s20.5,6,28.3,7.6l3.8-5.7c3.8,6.5,8.8,1.9,12.9,2.5,26.9,3.8,57,12.1,83.7,19.5,5.7,1.6,10.6,6.2,17.7,7s5.6-2.5,7.1-1.8,2.9,3.9,4.7,4.9c23.1,12.8,37.7,16.9,59.4,34.7,6.8,5.5,14,15.1,19.6,19.8s12.3,6.2,14.8,5.6,3.9-7.1,6.1-9.2c50-49.6,114.1-82.1,186.2-88.6,68.2-6.1,115.6,1.3,174.7,36.1,57.8,34.1,118.6,77.8,171.7,119ZM2021.6,142.5l-1.3-3.2c-16,9.5-40.3,2.5-58,8.2-66.4,21.4-93.5,53.2-131.9,108.6-15.9,23-19.9,35.5-31.1,59.2-6.1,12.8-19.1,15-18.7,30.1-7.5,3.7-18.5,22.4-25.5,23.5s-2.4-.7-3.3-2.4c-9.6-41.3-21.1-84-43.2-120.5-8.6-14.1-19.2-23.8-29.7-36.2l-40.4-35.9c-13.4-1.2-44.1,9.7-46.2-8.3-6.4,3.5-12.4-.4-19.7-.1-15.1.6-27.7,8.1-41.9,10.9-16.8,3.3-25.1,3.3-41.9,9.3-53.3,19.2-77.8,37.2-103,88.7-35.5,72.6-39.7,201.1-36.4,281.8,1.6,38.5,7.4,75.9,7.6,114.7.4,97.6-6.7,197.1,0,295.5,2,30.1,6.3,59.5,6.8,90,.1,7-2.7,16.7-2.2,23.9,1.2,18.1,12.8,42.9,22.8,58.1,5,7.6,24.5,27,25,33.1s-2.2,4.3-1.7,4.7l13.2-5.6c-.1,2.3.4,4.7,1.8,6.6,8.3,11.2,84.9,56.9,100.2,61.6,51.1,15.8,82,4.4,130.6-4.1,9.7-1.7,21.3,0,28.1-1s17.9-19.6,29.1-8.7c-1-11.3,10.8-19.4,17-29.1,6-9.4,19.3-29.9,22.9-39.2,7.8-20.1,6.8-51.5,14.7-71.9,2.8-7.1,9.8-7.4,5.6-16,26.5,14.6,38.1,48.3,56.5,72.4,40.9,53.6,98.1,102.8,166.7,113.6s87.9,6.9,115.3-4.7c9.4-3.9,82.4-57.9,88.7-65.6,22.2-27.1,56-107,58.2-141.4,5.3-81.5-67.1-146.5-112.8-204.9-32.6-41.7-62-86.1-97.9-125.1,12.3-4,25.7-19.8,34.8-30.1,20.7-23.2,38.5-50.6,61.1-72.5l-3.7-3.7,10.4-4.7c24.1-44.3,48.4-89.1,63.9-137.5,32.9-102.4,40.1-156.5-25.3-246.9-5.1-7-16.2-13.9-15.1-24-6.8,4.2-9.9-4.5-15.2-8.3-11.5-8.1-26.7-15-33.7-27.4l-2.8,3.7c-29.4-17.3-64.9-17-98.4-19.4ZM741.2,173.7c-2.9-1.6-59.2-.8-66.3-.5-50,2-103.8,14-145.3,33.8-11,5.2-18.6,6.1-30.6,10.4s-20,8-28.7,12.4c-26.1,13.1-53,26.5-74.7,44.2s-11.4,6.9-13.6,11.9l-5.3-1.7-1.8,6.8-5.6-1.1c.9,8.5-11,9.7-16.3,13.9s-30.1,31.5-32.2,35.4,1.7,3.1.5,5.2-6.6,4.5-8.3,7.2c-2.4,4-5,12.4-5.9,17.3l-3.7-1.9c1.3,7.5-8.4,12-10.8,15.6s-17.5,32.9-18.9,36.6c-2.3,6.3-1.9,15.7-5.3,21-3.9,6.1-14.3,6.4-16.1,8.8-2.6,3.6-10.3,39.3-13.4,48.2-6.6,18.8-12.4,26.5-16.5,47.1s-8,5.9-3.7,12.6h-5.7s1.7,6.5,1.7,6.5c-8.4,6.5-8.5,20.3-14.2,31s-2.5,6-6.3,5.8l3.6,2.7c-3.2,5.5-2.8,12.1-4.6,18s-8.6,20-10.2,25.7,1.5,6.6-.5,10.6-4.7,2.9-5,3.4,1.5,4.3.8,7.3c-3.5,15.7-10,32.4-12.6,45.9-9.9,51.6-4.3,90.8,10.7,138.6s4.6,6,6.3,8.4l-3.7,3.7c8.2,7.7,6.6,20,9.4,30.1s9.7,13.8,5.6,21.7h5.7c-2.2,7.3.6,12.8,4,19.1,23,44.2,39.4,74.7,77.2,109.5,21.2,19.5,46.6,36.3,68.4,55.8,40.5,36.3,74.5,74.3,123.8,101.9,8.9,5,21.6,9.2,31.4,12.8l-1.9,9.4c10.6-11.6,11.8-.6,18.9,2.7,19.9,9.4,54.1,23.2,75.2,29.8,18.3,5.7,39.7,6.1,54.6,16.4.4.3,4.4-3.3,8.3-3.8,15.4-2,28.4,2.8,41.5,3.5,25.5,1.2,54.6-3.8,79.1-1.7s.6-3.2,3.1-4.1c18.3-6.9,41.6-9.5,60.3-16.5,3-1.1,5.1-9,14.6-3.7l-.2-4.7c6.9-4.3,18-4.4,24.5-7.7,81.4-41.5,180.7-103.5,250.8-162.6,45.7-38.5,95.6-128.7,109.7-186.3,6.8-28,1.6-54.1,13.4-77.8,5-10-.3-8.2-1.3-10.1-2.9-5.9,1.6-45.6,1.2-55.8-2.6-57.8-21.9-121-43.5-174.4-39.3-97.2-88.4-176-165.5-246.6-7.1-6.5-23.8-16.4-28.4-22.4s-2.5-7.3-2.8-7.6-3.1,2-5.5,1-13.6-14.3-18-17.9c-14.9-12.2-31.6-22.8-47.8-33.1s-30.2-12.8-49-20.6c-41.3-17.2-60.7-27.5-105.5-37.5-5.3-1.2-13.3-6.6-14.2-6.7-12.5-1-22,4.3-35.1-3.1ZM143.2,436.7c-5.3-.5-9.7-2.2-14.9,0l5.9,12.9c10.3.7,10.1-3.9,9-12.8ZM2192.4,724.5c-9.3.7-8.6,12.8-10.6,19.9l10.7,8.4h-8.4c0,0-2.8,13.2-2.8,13.2,12.5.1,24-14.2,20.3-26.9-1.2-4-9-8.8-9-14.5ZM212.9,1021.8h-3.7s1.9,7.5,1.9,7.5h1.8s0-7.5,0-7.5ZM1268.5,1087.7l-12.1,7.5c-4,8.4-4.1,18.5-.9,27.2l-3.9,3.8c5.2,3.6,8.8,4.9,7.5,12.3,5.5-2.7,14.9-32.9,13.1-35.8l-5.6-1.1,1.8-14ZM1247.3,1095.9c-.8-.8-4.8-2.8-5.1-2.6-1.9,9.4,5.9,15.2,1.9,26.3h5.6s1.9-17.5,1.9-17.5c-3.6-1.1-3.5-5.4-4.4-6.3ZM1283.6,1178c8.7-.1,4.6-13,7.5-18.8-6,3.8-8.1,12.2-7.5,18.8ZM229.8,1230.7c0-5.9,6.3-28.1,2-31.1l-5.7-.8c0,6.5-.1,13.1.2,19.6s.5,11.5,3.5,12.3ZM1917.4,1308.2c-1.5-2.1-9.8-7-12.8-4.2,0,3,3.4,1.8,5.3,5,1.7,3,2.9,8.4,4.1,11.9,4.8,4.6,3.8-12.1,3.4-12.7ZM724.7,1322.9h-7.5s4.7,11.3,4.7,11.3l2.8-11.3ZM737.9,1337.9l-11.3-1.9c.1,7,11.4,11,11.3,1.9ZM1806.5,1379c-32-5.1-63.4,3.2-94.9,7.7-3.1.4-6.4-1.5-9-1.2-14.8,1.8-35.5,18-52,12.6l-.2,5.4c-4.1.6-8.3.4-12.3,1.8-25.4,9-50.6,26.9-71.5,44.3-6.6,5.5-15.3,14.2-20.1,19.3-37.7,40-77.9,76.2-109.8,119.9s-9.8,11.7-12,15.3c-3.3,5.3-10.2,25.5-12.9,28s-3.6,1.3-5.8,1.2l3.7,2.8c-1.9,2.3-5,4.1-6.4,6.7-17,31.9-31.9,68.4-50.3,98.5-1.2,2-4.4,2.6-5,3.5s-1.5,15.9-3.6,19.8-5.6,4.2-5.8,4.5c-.3.6,2.1,6.3-2.2,13.4-5.3,8.9-10.9,25.3-14,36.9-11,41.3-14.5,82.3-13.2,125.3,1.2,42.1,7.4,88.5,21.4,124.7,3.2,8.3,7.8,17.4,10.5,24.9,6.2,17.3,2.6,35.3,13.8,52.1l-3.4.6v5.6s5.4.1,5.4.1c1.3,18.8,13.2,36.4,21,53.4,4.7,10.2,6.1,12.8,14.1,21.6,30,33.3,48.9,58.2,86.2,85.1,12.2,8.8,23,20.1,35.2,28.7,12.2,8.7,43.6,23.8,50.8,33.9s1.8,4.4,1.8,6.7h1.8c.5-10,9.3,1.6,13.8,4.1,76.5,44.2,158.3,65.4,245.6,74.3,49.4,5.1,103.3,11.6,150.9-2.3,43.1-12.6,87.8-29.9,126.3-52.6,9-5.3,4.1-2.9,8.5-6.8,1.5-1.3,6.9-2.4,10-4.7,29-21.7,60.3-44.9,86.8-69.4,2.7-2.5,4.2-7,6.4-8.7s6.3-1.5,6.6-1.9c.6-.6-1.6-3.8-.8-5.6,1.1-2.7,9.9-9.6,12.1-12.7,6.1-8.7,10.9-18.3,17.1-27.2,3.7-5.3,9.8-4.6,7.6-14.6h5.5c-2.2-10.2,7.7-24,12.7-33.4,15.2-28.9,34-60.1,45-90.4,23.2-64.3,49.1-134.5,59.9-200.9,1.2-7.4,2.1-6,2.5-7.5.8-3-2.8-16.5-1.4-17.8l5.6-1.9-5.6-2.8v-3.8c7.8-2.1,1-5.3.3-9.9-3.1-20.7-.8-26.5-10.2-48-9.9-22.9-21.5-46.7-31.5-70.4s-7-14.1-7.1-14.9c-.4-2,2.1-5.7,1.5-6.4s-6.1,1.7-7.6-4.7l3.8-1.8c-1.7-2.1-4.6-2.6-6.3-4.7-6.7-8.2-20-27.1-23.3-39.1-.7-2.4,1.6-5,.5-7.9-3-8.1-30.6-28.4-38.6-36.7-12.1-12.5-15.3-23.8-32.4-31.3-2.7-1.2.1-5-9-1.7-1-.9,5.5-8.2,1.4-14.5-30.7-23.3-61.3-46.7-88.9-73.8-66.6-47.6-130.1-98.3-203.5-129.4-33.1-14-53.7-17.8-90-21.2s-20.1,3-26.3-3.8c-1.5,5.2-7.1,6-6.6,0l-2.1,3.4ZM1134.9,1891.1c.7-1.2-3.1-2.8-3.1-4.7-1.1-49.5-3.8-104.7-5.2-156.2-1.7-64.7,1.5-123.6-12.9-187.7-5.3-23.9-18.6-68.3-32.6-87.9-12.4-17.5-78.1-55.1-99.5-62.3-26.2-8.9-92.2.9-119,11-45.5,17.2-78.7,54.9-99.8,97.8-10.3,20.8-13.7,44.7-26,64.5-10.2-4.3-19.3-10.3-27.9-17.3-36.4-29.9-73.2-58.7-109.1-87.4-20.1-16.1-49.2-45.5-75.6-46-3.5,0-7.2,2.2-9.2,2.1s-.9-3.4-2.3-3.8c-7.3-1.8-64,10.9-74.3,13.8-43.2,12.3-92.2,61.2-120.1,96.3-25.6,32.3-38.4,71.2-47.9,111.1-3.7,15.6-12.2,55.1-12.5,69.6s3.1,15.2,3.3,22.6c3.1,80.6,2.9,161.8,6,242.7,4.9,125.2-8,345.3,60.3,448.3,14.2,21.5,36.7,32.8,53.3,52.5l40.7,25.3-1.8,7.3c.7.9,3.5-3.8,6.3-3.5s30.6,15.9,37.9,18.6c97.2,36.7,181.5,16.7,234.7-74.1,6.5-11.1,38.1-69.5,38.6-77.7s-4.4-20.2,1.6-21.4,28.7,20.6,32.9,25.4c7.2,8.3,3.3,3.6,10.7,9s5.9,10.3,8.4,13.3c10,12,23.8,27.5,34.4,36.9,15,13.2,25.1,30,40.5,42.4,25.3,20.4,62.8,35.5,94.8,36.5l1.2,3.8h3.7c-.8-6.6,5-1.7,10.4-1.7,4,0,12.3-2.3,14.8-2s1.4,7,4.9,3.8-6.8-4.5,6.7-4.6c1.2,0,2.7,2,4.7,1.8,11.2-1.2,22.6-6.6,33.9-7.5l1.8-6.6c9.2,3.3,17.5,0,20.9-9.4,7.7,3.6,4.6-1,7.3-2.6,15.6-9.6,24.5-17.7,37-32,2.3-2.6,1.4-8.9,8.2-8.8v-3.7s-5.6-3.8-5.6-3.8c4.3,1.1,16.5-11.5,17.9-15.2s-.6-5.2-2.8-9.3c13,5.1,7-13.7,7.6-22.4l11.2-.2-1.7-4.8,3.7-1.9-2.1-9.2,5.7.9c.9-7.5-8.1.3-5.6-9.4l5.6,1.9c3-9.9-2-13.4-7.5-20.7l5.6,1.9c.7-4.7.1-4.9-3.8-6.5l5.6-9.4,3.8,1-7.5-33.9,5.6,11.3c.4-3.2-.7-7,0-10.1s6-.5,3.8-5l-5.6-2.8-1.9,3.7c-2.5,3.1-2.2-2.4-2-3.8.7-3.8,3.3-6.4,2.2-10.1l5.5-.2c-7.4-9.1-.7-9.2-.4-10.3s1.4-16.7,1.3-17.8c-.3-4.3-8.2-16.8.9-17.1v-2.8c0,0-3.6-1.7-3.6-1.7,5.4-10.3-9.7-52.1-5.4-59s3.4.3,3.3-1.3v-2.8c-.1,0-3.7,0-3.7,0v-3.7s3.7-.9,3.7-.9c0-1.2-6,.1-3.8-7.3l3.8-2.1c-1.8-1.3-5.4-17.5-5.3-18.5.3-2.6,5-5.9,4.7-11.4s-10.4-14.5.5-19.1c-9.9-3.5-3.6-13.3-4.5-22.3-1.8-18.1-8.8-45.3-3.2-60.4-2-12.5-4.3-25.4-5.3-38s1.6-19.6,1.4-22.1-3-4.7-3.4-7.9c-1.9-17.1,1.1-34.3-4-50.6l3.8-1.1c.5-.7-2.4-3-3-5-2.2-7.6,2.8-5.9,3-6.3ZM284.6,1499.7l-.7-15.4-8.9-18.4-1.9,37.6,12-2,2.1,3.9,2.8-5.6h-5.5ZM1214.5,2089.2c-3.3,5.6,5.8,25.7,12.7,17.5s2.1-25.4-6.5-23.6-6,5.8-6.2,6.2ZM2609.1,2189.5c-5.7-5.6-5.6-6.2-14-.1l18.8,15-9.4,8.4c5.2.8,8.7-3,11.1-7-2.5-7.1-1.3-11.3-6.5-16.4ZM1467.9,2438.8l-15,1.8-1.9,18.9-3.7-1.9-1.9,13.2-3.7-3.7,1.9,13.2,17.9-7.5c3.1-12.8,12.2-20,6.5-33.9ZM2115.3,2611.8c2.1-8.6,6.3-14.1-3.7-18.8l3.7,18.8ZM2209.4,2638.2c-1.9-1.9-7.6,3.7-5.6,5.6s7.6-3.7,5.6-5.6Z"/>
  </g>
</svg>
